<?xml version="1.0" encoding="utf-8"?>
<!-- Generator: Adobe Illustrator 27.2.0, SVG Export Plug-In . SVG Version: 6.00 Build 0)  -->
<svg version="1.1" id="Laag_1" xmlns="http://www.w3.org/2000/svg" xmlns:xlink="http://www.w3.org/1999/xlink" x="0px" y="0px"
	 viewBox="0 0 841.89 595.28" style="enable-background:new 0 0 841.89 595.28;" xml:space="preserve">
<style type="text/css">
	.st0{fill:#FFFFFF;}
</style>
<g>
	<path class="st0" d="M204.03,270.9V64.41l-1.15,6.16l-49.61,181.1h-12.3L92.51,70.57l-1.15-6.16V270.9H62.52V1.74h38.84
		l45.76,169.96L194.02,1.74h38.84V270.9H204.03z"/>
	<path class="st0" d="M359.78,271.67h-44.22c-23.84,0-40.37-16.54-40.37-40.37V41.35c0-23.84,16.54-40.38,40.37-40.38h44.22
		c23.83,0,40.37,16.54,40.37,40.38V231.3C400.15,255.13,383.61,271.67,359.78,271.67z M361.7,29.04h-48.07
		c-5.77,0-9.62,3.85-9.62,9.62v195.33c0,5.78,3.85,9.62,9.62,9.62h48.07c5.77,0,9.62-3.84,9.62-9.62V38.65
		C371.31,32.88,367.46,29.04,361.7,29.04z"/>
	<path class="st0" d="M527.07,271.67h-44.23c-23.83,0-40.37-16.54-40.37-40.37V41.35c0-23.84,16.54-40.38,40.37-40.38h44.23
		c23.83,0,40.37,16.54,40.37,40.38V231.3C567.43,255.13,550.9,271.67,527.07,271.67z M528.98,29.04h-48.07
		c-5.77,0-9.62,3.85-9.62,9.62v195.33c0,5.78,3.85,9.62,9.62,9.62h48.07c5.77,0,9.62-3.84,9.62-9.62V38.65
		C538.6,32.88,534.75,29.04,528.98,29.04z"/>
	<path class="st0" d="M710.5,270.9L639.74,74.79l-1.15-4.61V270.9h-28.83V1.74h31.92l63.06,178.03l1.15,4.99V1.74h28.83V270.9H710.5
		z"/>
	<path class="st0" d="M190.77,593.55V387.05l-1.15,6.16l-49.6,181.1h-12.3l-48.45-181.1l-1.15-6.16v206.49H49.27V324.38h38.84
		l45.76,169.96l46.91-169.96h38.84v269.16H190.77z"/>
	<path class="st0" d="M346.53,594.31h-44.21c-23.08,0-40.38-17.3-40.38-40.37V324.38h28.83v232.24c0,5.78,3.85,9.62,9.62,9.62h48.06
		c5.77,0,9.62-3.84,9.62-9.62V324.38h28.83v229.56C386.9,577.01,369.6,594.31,346.53,594.31z"/>
	<path class="st0" d="M520.74,502.79l-77.29-76.9c-9.23-8.84-14.23-21.54-14.23-36.53v-25.37c0-23.07,17.3-40.38,40.37-40.38h44.23
		c23.07,0,40.37,17.31,40.37,40.38v37.3h-28.83v-39.99c0-5.77-3.85-9.62-9.62-9.62h-48.07c-5.77,0-9.62,3.85-9.62,9.62v32.31
		c0,4.99,1.54,9.23,4.61,12.3l77.29,76.91c9.24,8.84,14.23,21.53,14.23,36.91v34.22c0,23.07-17.3,40.37-40.37,40.37h-44.23
		c-23.07,0-40.37-17.3-40.37-40.37v-37.3h28.83v39.98c0,5.78,4.24,9.62,9.62,9.62h48.07c5.77,0,9.62-3.84,9.62-9.62v-41.13
		C525.35,510.1,523.81,505.88,520.74,502.79z"/>
	<path class="st0" d="M596.51,593.55V324.38h28.83v269.16H596.51z"/>
	<path class="st0" d="M752.25,594.31h-44.22c-23.84,0-40.38-16.54-40.38-40.37V363.99c0-23.84,16.54-40.38,40.38-40.38h44.22
		c23.83,0,40.37,16.54,40.37,40.38v32.68h-28.83v-35.38c0-5.77-3.85-9.62-9.62-9.62H706.1c-5.77,0-9.62,3.85-9.62,9.62v195.33
		c0,5.78,3.85,9.62,9.62,9.62h48.07c5.77,0,9.62-3.84,9.62-9.62v-35.37h28.83v32.68C792.62,577.77,776.08,594.31,752.25,594.31z"/>
</g>
</svg>
